# xmcd CD database file
#
# Track frame offsets:
#	150
#	21834
#	59713
#	86022
#	104740
#	124497
#	170002
#	184165
#	218276
#	237138
#	262102
#	283873
#	303251
#	325763
#
# Disc length: 4555 seconds
#
# Revision: 0
# Processed by: cddbd v1.5.2PL0 Copyright (c) Steve Scherf et al.
# Submitted via: CDex 1.51
#
DISCID=d211c90e
DTITLE=Dave MaCrae - Some History
DYEAR=2005
DGENRE=Jazz
TTITLE0=Tricycle
TTITLE1=How deep is the Ocean
TTITLE2=Eastern Haze
TTITLE3=I've grown accustomed to her face
TTITLE4=The Newport Rag
TTITLE5=Somnambulist Blues
TTITLE6=My Shout
TTITLE7=If I should lose you
TTITLE8=One for you one for me
TTITLE9=Lighthouse
TTITLE10=Autumn in New York
TTITLE11=Smoke Signal
TTITLE12=Black Motive
TTITLE13=Late at Night
EXTD=YEAR: 2005
EXTT0=
EXTT1=
EXTT2=
EXTT3=
EXTT4=
EXTT5=
EXTT6=
EXTT7=
EXTT8=
EXTT9=
EXTT10=
EXTT11=
EXTT12=
EXTT13=
PLAYORDER=
